<svg width="200" height="200" viewBox="0 0 200 200" fill="none" xmlns="http://www.w3.org/2000/svg">
<path d="M162.791 178.43C156.279 174.715 152.093 170.537 151.163 165.894C150.233 161.251 152.093 156.608 157.209 150.573C166.645 139.687 172.753 126.328 174.809 112.081C176.865 97.8333 174.782 83.2963 168.807 70.1955C162.833 57.0947 153.218 45.9803 141.104 38.1719C128.989 30.3635 114.885 26.1889 100.465 26.1439H100C85.5404 26.1 71.3734 30.2101 59.19 37.9837C47.0065 45.7573 37.3211 56.8661 31.2896 69.9844C25.2582 83.1026 23.1354 97.6762 25.1748 111.966C27.2141 126.255 33.3293 139.657 42.7907 150.573C47.907 156.608 49.7674 161.251 49.3023 165.43C48.8372 169.608 44.186 174.715 37.2093 178.43C26.1923 169.197 17.1721 157.823 10.6977 145.001C3.82452 131.465 0.164167 116.532 5.933e-09 101.358C-0.000143133 88.2713 2.58973 75.3133 7.62089 63.2283C12.652 51.1434 20.0254 40.1697 29.3173 30.9375C38.6093 21.7052 49.6369 14.3963 61.7668 9.43052C73.8967 4.46474 86.8898 1.93993 100 2.00108H100.465C126.863 2.00108 152.181 12.469 170.847 31.1021C189.513 49.7352 200 75.0071 200 101.358C199.944 109.023 199.007 116.656 197.209 124.108C195.533 131.332 193.036 138.342 189.767 145.001C183.304 157.831 174.282 169.206 163.256 178.43" fill="#F0424D"/>
<path d="M126.512 197C122.883 194.481 119.733 191.336 117.209 187.714C112.111 180.54 109.498 171.9 109.767 163.107C109.956 156.406 111.375 149.797 113.953 143.607C116.439 137.277 120.065 131.455 124.651 126.429L125.581 125.5C127.311 123.467 128.866 121.292 130.233 119C132.271 116.174 133.842 113.038 134.884 109.714C136.035 104.97 136.174 100.037 135.292 95.2351C134.409 90.4335 132.526 85.8707 129.762 81.8429C126.999 77.8151 123.419 74.4122 119.253 71.8551C115.087 69.298 110.429 67.6439 105.581 67C103.878 66.8716 102.168 66.8716 100.465 67H100C93.483 66.7569 87.031 68.3671 81.3954 71.6429C77.3979 74.0254 73.9187 77.1827 71.1628 80.9286C68.1916 85.033 66.153 89.7349 65.189 94.7064C64.2251 99.678 64.359 104.8 65.5814 109.714C66.3482 112.978 67.6026 116.109 69.3023 119C70.8045 121.319 72.5172 123.494 74.4186 125.5L75.3488 126.893C79.8956 131.775 83.5199 137.437 86.0465 143.607C88.7851 149.766 90.3619 156.377 90.6977 163.107C90.7665 172.159 87.8216 180.978 82.3256 188.179C79.8992 191.595 76.9113 194.578 73.4884 197L67.907 195.143C62.1077 193.188 56.5023 190.701 51.1628 187.714C55.6502 185.351 59.4072 181.811 62.0297 177.475C64.6522 173.139 66.0409 168.172 66.0465 163.107C65.8812 155.862 63.0691 148.927 58.1395 143.607L56.7442 141.75L52.5581 137.107C45.0825 127.073 40.9684 114.94 40.8014 102.436C40.6343 89.9321 44.423 77.6942 51.6279 67.4643C56.2349 60.9679 62.0835 55.4453 68.8372 51.2143C75.9181 46.8353 83.8408 43.9882 92.093 42.8571C94.706 42.3785 97.3471 42.0683 100 41.9286H100.93C103.739 42.0493 106.536 42.3595 109.302 42.8571C117.394 44.0505 125.152 46.8954 132.093 51.2143C138.636 55.3567 144.321 60.7158 148.837 67C156.111 77.2027 159.941 89.452 159.774 101.973C159.607 114.494 155.45 126.637 147.907 136.643L143.721 141.286L142.326 143.143C137.328 148.605 134.514 155.71 134.419 163.107C134.294 168.203 135.572 173.235 138.115 177.656C140.657 182.077 144.366 185.716 148.837 188.179C143.48 191.004 137.875 193.335 132.093 195.143L126.512 197Z" fill="#F0424D"/>
<path d="M100 121.786C96.1364 121.786 92.3595 120.642 89.147 118.499C85.9345 116.357 83.4307 113.311 81.9521 109.748C80.4736 106.185 80.0867 102.264 80.8405 98.4814C81.5942 94.6988 83.4548 91.2243 86.1868 88.4971C88.9188 85.77 92.3995 83.9128 96.1889 83.1604C99.9783 82.408 103.906 82.7941 107.476 84.2701C111.045 85.746 114.096 88.2453 116.243 91.4521C118.389 94.6589 119.535 98.429 119.535 102.286C119.535 107.457 117.477 112.417 113.813 116.074C110.15 119.731 105.181 121.786 100 121.786Z" fill="#F0424D"/>
</svg>
