<svg width="378" height="299" viewBox="0 0 378 299" fill="none" xmlns="http://www.w3.org/2000/svg">
<mask id="mask0_2003_105" style="mask-type:alpha" maskUnits="userSpaceOnUse" x="0" y="0" width="369" height="271">
<path d="M184.5 0C222.504 0 255.428 3.03815 275.74 5.57715C286.535 6.92652 294.094 10.7027 299.313 16.4043C303.52 20.9991 305.609 26.3919 306.827 29.5938L307.3 30.8232L307.326 30.8906L307.352 30.958L317.405 57.5H333.5C344.184 57.5 353.597 60.3449 360.227 67.2754C366.776 74.123 369 83.2898 369 92.5C369 102.08 364.27 109.857 359.528 115.178C356.678 118.376 353.494 121.063 350.5 123.145V161.644C347.998 144.428 340.905 128.701 330.5 115.745V111.244L336.125 108.508C338.097 107.549 341.655 105.173 344.597 101.872C347.563 98.5431 349 95.32 349 92.5C349 86.2103 347.474 82.877 345.773 81.0996C344.153 79.4052 340.816 77.5 333.5 77.5H303.595L301.148 71.042L288.682 38.1299C286.998 33.8689 286.289 31.7957 284.562 29.9082C283.239 28.464 280.464 26.3234 273.26 25.4229C253.572 22.9618 221.496 20 184.5 20C147.593 20 115.555 23.446 95.7402 25.9229C88.5356 26.8234 85.7607 28.964 84.4385 30.4082C82.7105 32.2957 82.0012 34.3687 80.3174 38.6299L67.8516 71.542L65.4053 78H35.5C28.1839 78 24.8474 79.9052 23.2266 81.5996C21.5265 83.377 20 86.7103 20 93C20 95.82 21.4368 99.0431 24.4033 102.372C27.3453 105.673 30.9034 108.049 32.875 109.008L38.5 111.744V230C38.5 235.373 39.2567 239.581 42.3672 242.79C45.5643 246.088 53.4097 250.5 73 250.5C88.5617 250.5 95.2022 247.934 98.1768 245.339C100.673 243.161 102.5 239.222 102.5 229.5V219.5H171.22C174.997 226.763 179.68 233.48 185.119 239.5H121.85C120.714 247.321 117.835 254.731 111.323 260.411C102.548 268.066 89.438 270.5 73 270.5C51.0903 270.5 36.6857 265.662 28.0078 256.71C19.2433 247.669 18.5 236.627 18.5 230V123.645C15.5057 121.563 12.322 118.876 9.47168 115.678C4.72997 110.357 0 102.58 0 93C0 83.7898 2.22362 74.623 8.77344 67.7754C15.4026 60.8449 24.8163 58 35.5 58H51.5947L61.6484 31.458L61.6738 31.3906L61.7002 31.3232C62.8364 28.4492 64.8793 22.1557 69.6865 16.9043C74.906 11.2027 82.4648 7.42652 93.2598 6.07715C113.445 3.55402 146.407 0 184.5 0ZM316.264 268.264C310.372 269.41 303.643 270 296 270C289.196 270 282.956 269.602 277.355 268.602C287.361 266.316 296.768 262.459 305.304 257.304L316.264 268.264ZM275.973 268.339C276.429 268.43 276.89 268.518 277.355 268.602H277.354C276.889 268.518 276.429 268.43 275.973 268.339ZM274.677 268.064C275.054 268.149 275.435 268.23 275.818 268.308C275.435 268.23 275.054 268.149 274.677 268.064ZM317.239 268.066C316.917 268.134 316.592 268.2 316.264 268.264C316.592 268.2 316.917 268.134 317.239 268.066ZM320.202 267.382C319.265 267.62 318.304 267.843 317.318 268.05C318.304 267.843 319.265 267.62 320.202 267.382ZM274.384 267.999C274.183 267.953 273.983 267.906 273.784 267.858C273.983 267.906 274.183 267.953 274.384 267.999ZM272.49 267.531C272.856 267.628 273.226 267.723 273.599 267.813C273.226 267.723 272.857 267.628 272.49 267.531ZM271.251 267.186C271.55 267.273 271.851 267.358 272.154 267.44C271.851 267.358 271.55 267.273 271.251 267.186ZM321.126 267.14C320.851 267.214 320.575 267.286 320.296 267.357C320.575 267.286 320.851 267.214 321.126 267.14ZM323.023 266.595C322.437 266.774 321.84 266.946 321.233 267.111C321.84 266.946 322.437 266.774 323.023 266.595ZM270.257 266.886C270.465 266.951 270.675 267.015 270.886 267.078C270.675 267.015 270.465 266.951 270.257 266.886ZM265.946 265.277C267.133 265.797 268.366 266.265 269.645 266.688C268.366 266.265 267.133 265.797 265.946 265.277ZM325.706 265.703C324.866 266.007 324.003 266.293 323.116 266.565C324.003 266.293 324.866 266.006 325.706 265.703ZM328.236 264.714C327.44 265.051 326.62 265.37 325.778 265.676C326.62 265.37 327.44 265.051 328.236 264.714ZM265.906 265.26C265.719 265.177 265.532 265.095 265.347 265.01C265.532 265.095 265.719 265.177 265.906 265.26ZM263.601 264.153C264.161 264.447 264.734 264.728 265.317 264.996C264.734 264.728 264.161 264.447 263.601 264.153ZM328.975 264.394C328.754 264.491 328.532 264.587 328.308 264.683C328.532 264.587 328.754 264.491 328.975 264.394ZM329.793 264.021C329.576 264.122 329.358 264.222 329.138 264.32C329.358 264.222 329.576 264.122 329.793 264.021ZM262.401 263.492C262.259 263.41 262.118 263.328 261.978 263.244C262.118 263.328 262.259 263.41 262.401 263.492ZM331.345 263.261C330.871 263.505 330.388 263.743 329.896 263.975C330.388 263.743 330.871 263.505 331.345 263.261ZM332.093 262.866C331.879 262.982 331.663 263.096 331.445 263.209C331.663 263.096 331.879 262.982 332.093 262.866ZM260.299 262.171C260.799 262.513 261.31 262.843 261.833 263.158C261.31 262.843 260.799 262.513 260.299 262.171ZM332.854 262.444C332.626 262.574 332.395 262.703 332.162 262.829C332.395 262.703 332.626 262.574 332.854 262.444ZM260.188 262.095C260.056 262.003 259.924 261.911 259.793 261.817C259.924 261.911 260.056 262.003 260.188 262.095ZM334.194 261.649C334.031 261.751 333.865 261.851 333.699 261.951C333.865 261.851 334.031 261.751 334.194 261.649ZM259.676 261.732C259.548 261.64 259.42 261.547 259.293 261.453C259.42 261.547 259.548 261.64 259.676 261.732ZM335.584 260.745C335.178 261.022 334.763 261.293 334.34 261.559C334.763 261.293 335.178 261.022 335.584 260.745ZM259.17 261.36C259.061 261.279 258.953 261.196 258.846 261.113C258.953 261.196 259.061 261.279 259.17 261.36ZM258.672 260.978C258.579 260.905 258.487 260.832 258.396 260.758C258.487 260.832 258.579 260.905 258.672 260.978ZM257.769 260.24C257.912 260.362 258.057 260.483 258.203 260.603C258.057 260.483 257.912 260.362 257.769 260.24ZM336.156 260.346C336.035 260.432 335.913 260.517 335.79 260.603C335.913 260.517 336.035 260.432 336.156 260.346ZM336.812 259.868C336.668 259.976 336.523 260.083 336.376 260.189C336.523 260.083 336.668 259.976 336.812 259.868ZM337.508 259.339C337.329 259.479 337.149 259.617 336.967 259.754C337.149 259.617 337.329 259.479 337.508 259.339ZM338.072 258.887C337.954 258.984 337.834 259.08 337.714 259.176C337.834 259.08 337.954 258.984 338.072 258.887ZM338.641 258.412C338.515 258.519 338.389 258.627 338.261 258.732C338.389 258.627 338.515 258.519 338.641 258.412ZM339.3 257.837C339.136 257.984 338.971 258.129 338.804 258.273C338.971 258.129 339.136 257.984 339.3 257.837ZM339.842 257.339C339.721 257.452 339.599 257.565 339.476 257.677C339.599 257.565 339.721 257.452 339.842 257.339ZM340.407 256.797C340.266 256.936 340.122 257.073 339.978 257.21C340.122 257.073 340.266 256.936 340.407 256.797ZM341.821 255.32C341.553 255.618 341.277 255.916 340.992 256.21C340.833 256.374 340.671 256.537 340.508 256.698C340.671 256.537 340.833 256.374 340.992 256.21C341.277 255.916 341.553 255.618 341.821 255.32ZM342.233 254.854C342.158 254.941 342.082 255.027 342.006 255.113C342.082 255.027 342.158 254.941 342.233 254.854ZM342.627 254.391C342.546 254.488 342.463 254.585 342.38 254.683C342.463 254.585 342.546 254.488 342.627 254.391ZM343.028 253.9C342.937 254.015 342.844 254.128 342.75 254.242C342.844 254.128 342.937 254.015 343.028 253.9ZM343.409 253.414C343.313 253.539 343.217 253.663 343.118 253.787C343.217 253.663 343.313 253.539 343.409 253.414ZM343.721 253.002C343.64 253.111 343.558 253.22 343.475 253.328C343.558 253.22 343.64 253.111 343.721 253.002ZM344.076 252.514C344.009 252.607 343.943 252.702 343.875 252.795C343.943 252.702 344.009 252.607 344.076 252.514ZM344.512 251.891C345.57 250.331 346.443 248.745 347.162 247.159C346.442 248.744 345.571 250.331 344.512 251.891ZM347.646 246.04C347.565 246.237 347.482 246.435 347.396 246.632C347.482 246.435 347.565 246.237 347.646 246.04ZM348.031 245.057C347.931 245.325 347.826 245.593 347.718 245.861C347.826 245.593 347.931 245.325 348.031 245.057ZM349.365 240.617C349.041 242.013 348.625 243.443 348.095 244.886C348.625 243.443 349.041 242.013 349.365 240.617ZM350.5 229.5C350.5 232.5 350.345 236.403 349.365 240.617C345.681 236.99 340.267 231.522 336.219 227.336C343.505 216.083 348.488 203.201 350.5 189.355V229.5ZM266.5 227.969C263.105 228.644 259.594 229 256 229C244.689 229 234.199 225.49 225.558 219.5H266.5V227.969ZM263.454 264.075C263.309 263.998 263.165 263.921 263.021 263.842C263.165 263.921 263.309 263.998 263.454 264.075ZM262.997 263.828C262.814 263.728 262.633 263.626 262.453 263.522C262.633 263.626 262.814 263.728 262.997 263.828ZM333.506 262.067C333.3 262.19 333.091 262.31 332.881 262.43C333.091 262.31 333.3 262.19 333.506 262.067ZM344.484 251.931C344.385 252.077 344.283 252.223 344.18 252.369C344.283 252.223 344.385 252.077 344.484 251.931Z" fill="#1C2434"/>
</mask>
<g mask="url(#mask0_2003_105)">
<path d="M73 260.5C105 260.5 112.5 250.5 112.5 229.5H256.5C256.5 250.5 264 260 296 260C337.5 260 340.5 241.5 340.5 229.5V117.5C346.667 114.5 359 104.9 359 92.5C359 77 351.5 67.5 333.5 67.5H310.5L298 34.5C295.167 27.3333 292.5 17.75 274.5 15.5C254.5 13 222 10 184.5 10C147 10 114.5 13.5 94.5 16C76.5 18.25 73.8333 27.8333 71 35L58.5 68H35.5C17.5 68 10 77.5 10 93C10 105.4 22.3333 115 28.5 118V230C28.5 242 31.5 260.5 73 260.5Z" stroke="white" stroke-width="20"/>
</g>
<mask id="mask1_2003_105" style="mask-type:alpha" maskUnits="userSpaceOnUse" x="77" y="145" width="211" height="65">
<path d="M165.31 145.5C162.19 154.935 160.5 165.02 160.5 175.5C160.5 187.476 162.705 198.937 166.73 209.5H86C81.3056 209.5 77.5 205.694 77.5 201V154C77.5 149.306 81.3056 145.5 86 145.5H165.31ZM279 145.5C283.694 145.5 287.5 149.306 287.5 154V201C287.5 205.694 283.694 209.5 279 209.5H214.691C210.58 204.511 207.355 198.764 205.258 192.5H270.5V162.5H204.092C205.629 156.341 208.233 150.606 211.697 145.5H279Z" fill="#D9D9D9"/>
</mask>
<g mask="url(#mask1_2003_105)">
<path d="M174 154H86V201H174M174 154V201M174 154H87V201H174M174 154H279V201H174" stroke="black" stroke-width="17" stroke-linecap="round" stroke-linejoin="round" fill="#DF1E23"/>
</g>
<path d="M256 93C301.563 93 338.5 129.937 338.5 175.5C338.5 221.063 301.563 258 256 258C210.437 258 173.5 221.063 173.5 175.5C173.5 129.937 210.437 93 256 93ZM256 113C221.482 113 193.5 140.982 193.5 175.5C193.5 210.018 221.482 238 256 238C290.518 238 318.5 210.018 318.5 175.5C318.5 140.982 290.518 113 256 113Z" fill="white"/>
<path d="M378 285L364 299L306 240.5L320 227L378 285Z" fill="white"/>
</svg>
