<svg width="205" height="205" viewBox="0 0 205 205" fill="none" xmlns="http://www.w3.org/2000/svg">
<path d="M14.3941 153.753C15.3554 155.426 16.7132 156.726 18.2752 157.616L97.7247 203.568C99.2747 204.482 101.077 205 103 205C104.922 205 106.737 204.47 108.275 203.556L187.724 157.604C189.286 156.726 190.644 155.414 191.605 153.741C192.567 152.068 193.023 150.239 192.999 148.445V56.5546C192.999 54.7493 192.567 52.9199 191.605 51.259C190.644 49.5861 189.286 48.2863 187.724 47.3956L108.275 1.44425C106.725 0.529554 104.922 0 103 0C101.077 0 99.2747 0.529563 97.7247 1.44425L18.2752 47.3956C16.7132 48.2863 15.3554 49.5861 14.3941 51.259C13.4328 52.932 12.9882 54.7613 13.0002 56.5546V148.445C12.9882 150.251 13.4328 152.068 14.3941 153.741" fill="#029648"/>
<path d="M77.5739 137.481C77.5739 143.138 72.9958 147.711 67.3604 147.711C61.7249 147.711 57.1468 143.126 57.1468 137.481V67.2301C57.1468 61.79 61.9532 57.2888 68.7542 57.2888C73.6207 57.2888 79.2441 59.2505 82.6807 63.5231L128.461 118.393V67.5189C128.461 61.8622 133.04 57.2888 138.687 57.2888C144.334 57.2888 148.901 61.8743 148.901 67.5189V137.77C148.901 143.21 144.082 147.711 137.293 147.711C132.427 147.711 126.803 145.749 123.367 141.477L77.5859 86.6071V137.493H77.5739L77.5739 137.481Z" fill="white"/>
</svg>
