<svg width="140" height="140" viewBox="0 0 140 140" fill="none" xmlns="http://www.w3.org/2000/svg">
<path d="M70.0008 65.8128L23.6264 14.8117C25.4254 13.0129 27.5206 11.5995 29.9124 10.5715C32.3044 9.54371 34.8742 9.01984 37.6218 9C40.5401 9.02232 43.2136 9.60052 45.6425 10.7346C48.0715 11.8689 50.1817 13.4256 51.9731 15.4047L70.0011 35.0932L87.9106 15.4047C89.7663 13.4256 91.9259 11.8688 94.3894 10.7346C96.8529 9.60051 99.5167 9.02231 102.38 9C105.128 9.01982 107.698 9.54371 110.09 10.5715C112.482 11.5995 114.577 13.0129 116.376 14.8117L70.0001 65.8115" fill="black"/>
<path d="M70.0001 73.617L116.375 124.618C114.576 126.417 112.48 127.83 110.088 128.858C107.696 129.886 105.127 130.41 102.379 130.43C99.4608 130.408 96.7873 129.829 94.3584 128.695C91.9295 127.561 89.8192 126.004 88.0279 124.025L69.9998 104.337L52.0903 124.025C50.2346 126.004 48.0751 127.561 45.6116 128.695C43.148 129.829 40.4843 130.408 37.6205 130.43C34.8728 130.41 32.303 129.886 29.9112 128.858C27.5193 127.83 25.4239 126.417 23.6251 124.618L70.0009 73.6184" fill="black"/>
<path d="M66.0997 69.7156L31.1669 31.4068C29.135 29.2398 26.7705 27.5354 24.0732 26.2935C21.3758 25.0518 18.4593 24.4187 15.3236 24.3943C12.3152 24.416 9.50151 24.9896 6.88261 26.1149C4.26371 27.2405 1.96953 28.788 0 30.7575L35.4524 69.7162L0 108.675C1.96953 110.707 4.26371 112.292 6.88261 113.431C9.50151 114.57 12.3152 115.149 15.3236 115.168C18.4674 115.144 21.4001 114.511 24.1218 113.269C26.8436 112.027 29.1919 110.322 31.1669 108.155L66.0997 69.7156Z" fill="#E57000"/>
<path d="M73.9003 69.7156L108.833 31.4068C110.865 29.2398 113.229 27.5354 115.927 26.2935C118.624 25.0518 121.541 24.4187 124.676 24.3943C127.685 24.416 130.498 24.9896 133.117 26.1149C135.736 27.2405 138.03 28.788 140 30.7575L104.548 69.7162L140 108.675C138.03 110.707 135.736 112.292 133.117 113.431C130.498 114.57 127.685 115.149 124.676 115.168C121.532 115.144 118.6 114.511 115.878 113.269C113.156 112.027 110.808 110.322 108.833 108.155L73.9003 69.7156Z" fill="#E57000"/>
</svg>
