<svg width="330" height="175" viewBox="0 0 330 175" fill="none" xmlns="http://www.w3.org/2000/svg">
<path d="M132 0H330V13H132V0Z" fill="#B31942"/>
<path d="M132 27H330V40H132V27Z" fill="#B31942"/>
<path d="M132 54H330V67H132V54Z" fill="#B31942"/>
<path d="M132 81H330V94H132V81Z" fill="#B31942"/>
<path d="M0 108H330V121H0V108Z" fill="#B31942"/>
<path d="M0 135H330V148H0V135Z" fill="#B31942"/>
<path d="M0 162H330V175H0V162Z" fill="#B31942"/>
<path d="M132 13H330V27H132V13Z" fill="white"/>
<path d="M132 40H330V54H132V40Z" fill="white"/>
<path d="M132 67H330V81H132V67Z" fill="white"/>
<path d="M0 94H330V108H0V94Z" fill="white"/>
<path d="M0 121H330V135H0V121Z" fill="white"/>
<path d="M0 148H330V162H0V148Z" fill="white"/>
<path d="M0 0H132V94H0V0Z" fill="#0A3161"/>
<path d="M11 3L12.3471 7.1459H16.7063L13.1796 9.7082L14.5267 13.8541L11 11.2918L7.47329 13.8541L8.82037 9.7082L5.29366 7.1459H9.65292L11 3Z" fill="white"/>
<path d="M22 13L23.3471 17.1459H27.7063L24.1796 19.7082L25.5267 23.8541L22 21.2918L18.4733 23.8541L19.8204 19.7082L16.2937 17.1459H20.6529L22 13Z" fill="white"/>
<path d="M22 31L23.3471 35.1459H27.7063L24.1796 37.7082L25.5267 41.8541L22 39.2918L18.4733 41.8541L19.8204 37.7082L16.2937 35.1459H20.6529L22 31Z" fill="white"/>
<path d="M22 50L23.3471 54.1459H27.7063L24.1796 56.7082L25.5267 60.8541L22 58.2918L18.4733 60.8541L19.8204 56.7082L16.2937 54.1459H20.6529L22 50Z" fill="white"/>
<path d="M22 69L23.3471 73.1459H27.7063L24.1796 75.7082L25.5267 79.8541L22 77.2918L18.4733 79.8541L19.8204 75.7082L16.2937 73.1459H20.6529L22 69Z" fill="white"/>
<path d="M11 22L12.3471 26.1459H16.7063L13.1796 28.7082L14.5267 32.8541L11 30.2918L7.47329 32.8541L8.82037 28.7082L5.29366 26.1459H9.65292L11 22Z" fill="white"/>
<path d="M11 41L12.3471 45.1459H16.7063L13.1796 47.7082L14.5267 51.8541L11 49.2918L7.47329 51.8541L8.82037 47.7082L5.29366 45.1459H9.65292L11 41Z" fill="white"/>
<path d="M11 60L12.3471 64.1459H16.7063L13.1796 66.7082L14.5267 70.8541L11 68.2918L7.47329 70.8541L8.82037 66.7082L5.29366 64.1459H9.65292L11 60Z" fill="white"/>
<path d="M11 78L12.3471 82.1459H16.7063L13.1796 84.7082L14.5267 88.8541L11 86.2918L7.47329 88.8541L8.82037 84.7082L5.29366 82.1459H9.65292L11 78Z" fill="white"/>
<path d="M33 3L34.3471 7.1459H38.7063L35.1796 9.7082L36.5267 13.8541L33 11.2918L29.4733 13.8541L30.8204 9.7082L27.2937 7.1459H31.6529L33 3Z" fill="white"/>
<path d="M44 13L45.3471 17.1459H49.7063L46.1796 19.7082L47.5267 23.8541L44 21.2918L40.4733 23.8541L41.8204 19.7082L38.2937 17.1459H42.6529L44 13Z" fill="white"/>
<path d="M44 31L45.3471 35.1459H49.7063L46.1796 37.7082L47.5267 41.8541L44 39.2918L40.4733 41.8541L41.8204 37.7082L38.2937 35.1459H42.6529L44 31Z" fill="white"/>
<path d="M44 50L45.3471 54.1459H49.7063L46.1796 56.7082L47.5267 60.8541L44 58.2918L40.4733 60.8541L41.8204 56.7082L38.2937 54.1459H42.6529L44 50Z" fill="white"/>
<path d="M44 69L45.3471 73.1459H49.7063L46.1796 75.7082L47.5267 79.8541L44 77.2918L40.4733 79.8541L41.8204 75.7082L38.2937 73.1459H42.6529L44 69Z" fill="white"/>
<path d="M33 22L34.3471 26.1459H38.7063L35.1796 28.7082L36.5267 32.8541L33 30.2918L29.4733 32.8541L30.8204 28.7082L27.2937 26.1459H31.6529L33 22Z" fill="white"/>
<path d="M33 41L34.3471 45.1459H38.7063L35.1796 47.7082L36.5267 51.8541L33 49.2918L29.4733 51.8541L30.8204 47.7082L27.2937 45.1459H31.6529L33 41Z" fill="white"/>
<path d="M33 60L34.3471 64.1459H38.7063L35.1796 66.7082L36.5267 70.8541L33 68.2918L29.4733 70.8541L30.8204 66.7082L27.2937 64.1459H31.6529L33 60Z" fill="white"/>
<path d="M33 78L34.3471 82.1459H38.7063L35.1796 84.7082L36.5267 88.8541L33 86.2918L29.4733 88.8541L30.8204 84.7082L27.2937 82.1459H31.6529L33 78Z" fill="white"/>
<path d="M55 3L56.3471 7.1459H60.7063L57.1796 9.7082L58.5267 13.8541L55 11.2918L51.4733 13.8541L52.8204 9.7082L49.2937 7.1459H53.6529L55 3Z" fill="white"/>
<path d="M66 13L67.3471 17.1459H71.7063L68.1796 19.7082L69.5267 23.8541L66 21.2918L62.4733 23.8541L63.8204 19.7082L60.2937 17.1459H64.6529L66 13Z" fill="white"/>
<path d="M66 31L67.3471 35.1459H71.7063L68.1796 37.7082L69.5267 41.8541L66 39.2918L62.4733 41.8541L63.8204 37.7082L60.2937 35.1459H64.6529L66 31Z" fill="white"/>
<path d="M66 50L67.3471 54.1459H71.7063L68.1796 56.7082L69.5267 60.8541L66 58.2918L62.4733 60.8541L63.8204 56.7082L60.2937 54.1459H64.6529L66 50Z" fill="white"/>
<path d="M66 69L67.3471 73.1459H71.7063L68.1796 75.7082L69.5267 79.8541L66 77.2918L62.4733 79.8541L63.8204 75.7082L60.2937 73.1459H64.6529L66 69Z" fill="white"/>
<path d="M55 22L56.3471 26.1459H60.7063L57.1796 28.7082L58.5267 32.8541L55 30.2918L51.4733 32.8541L52.8204 28.7082L49.2937 26.1459H53.6529L55 22Z" fill="white"/>
<path d="M55 41L56.3471 45.1459H60.7063L57.1796 47.7082L58.5267 51.8541L55 49.2918L51.4733 51.8541L52.8204 47.7082L49.2937 45.1459H53.6529L55 41Z" fill="white"/>
<path d="M55 60L56.3471 64.1459H60.7063L57.1796 66.7082L58.5267 70.8541L55 68.2918L51.4733 70.8541L52.8204 66.7082L49.2937 64.1459H53.6529L55 60Z" fill="white"/>
<path d="M55 78L56.3471 82.1459H60.7063L57.1796 84.7082L58.5267 88.8541L55 86.2918L51.4733 88.8541L52.8204 84.7082L49.2937 82.1459H53.6529L55 78Z" fill="white"/>
<path d="M77 3L78.3471 7.1459H82.7063L79.1796 9.7082L80.5267 13.8541L77 11.2918L73.4733 13.8541L74.8204 9.7082L71.2937 7.1459H75.6529L77 3Z" fill="white"/>
<path d="M88 13L89.3471 17.1459H93.7063L90.1796 19.7082L91.5267 23.8541L88 21.2918L84.4733 23.8541L85.8204 19.7082L82.2937 17.1459H86.6529L88 13Z" fill="white"/>
<path d="M88 31L89.3471 35.1459H93.7063L90.1796 37.7082L91.5267 41.8541L88 39.2918L84.4733 41.8541L85.8204 37.7082L82.2937 35.1459H86.6529L88 31Z" fill="white"/>
<path d="M88 50L89.3471 54.1459H93.7063L90.1796 56.7082L91.5267 60.8541L88 58.2918L84.4733 60.8541L85.8204 56.7082L82.2937 54.1459H86.6529L88 50Z" fill="white"/>
<path d="M88 69L89.3471 73.1459H93.7063L90.1796 75.7082L91.5267 79.8541L88 77.2918L84.4733 79.8541L85.8204 75.7082L82.2937 73.1459H86.6529L88 69Z" fill="white"/>
<path d="M77 22L78.3471 26.1459H82.7063L79.1796 28.7082L80.5267 32.8541L77 30.2918L73.4733 32.8541L74.8204 28.7082L71.2937 26.1459H75.6529L77 22Z" fill="white"/>
<path d="M77 41L78.3471 45.1459H82.7063L79.1796 47.7082L80.5267 51.8541L77 49.2918L73.4733 51.8541L74.8204 47.7082L71.2937 45.1459H75.6529L77 41Z" fill="white"/>
<path d="M77 60L78.3471 64.1459H82.7063L79.1796 66.7082L80.5267 70.8541L77 68.2918L73.4733 70.8541L74.8204 66.7082L71.2937 64.1459H75.6529L77 60Z" fill="white"/>
<path d="M77 78L78.3471 82.1459H82.7063L79.1796 84.7082L80.5267 88.8541L77 86.2918L73.4733 88.8541L74.8204 84.7082L71.2937 82.1459H75.6529L77 78Z" fill="white"/>
<path d="M99 3L100.347 7.1459H104.706L101.18 9.7082L102.527 13.8541L99 11.2918L95.4733 13.8541L96.8204 9.7082L93.2937 7.1459H97.6529L99 3Z" fill="white"/>
<path d="M110 13L111.347 17.1459H115.706L112.18 19.7082L113.527 23.8541L110 21.2918L106.473 23.8541L107.82 19.7082L104.294 17.1459H108.653L110 13Z" fill="white"/>
<path d="M110 31L111.347 35.1459H115.706L112.18 37.7082L113.527 41.8541L110 39.2918L106.473 41.8541L107.82 37.7082L104.294 35.1459H108.653L110 31Z" fill="white"/>
<path d="M110 50L111.347 54.1459H115.706L112.18 56.7082L113.527 60.8541L110 58.2918L106.473 60.8541L107.82 56.7082L104.294 54.1459H108.653L110 50Z" fill="white"/>
<path d="M110 69L111.347 73.1459H115.706L112.18 75.7082L113.527 79.8541L110 77.2918L106.473 79.8541L107.82 75.7082L104.294 73.1459H108.653L110 69Z" fill="white"/>
<path d="M99 22L100.347 26.1459H104.706L101.18 28.7082L102.527 32.8541L99 30.2918L95.4733 32.8541L96.8204 28.7082L93.2937 26.1459H97.6529L99 22Z" fill="white"/>
<path d="M99 41L100.347 45.1459H104.706L101.18 47.7082L102.527 51.8541L99 49.2918L95.4733 51.8541L96.8204 47.7082L93.2937 45.1459H97.6529L99 41Z" fill="white"/>
<path d="M99 60L100.347 64.1459H104.706L101.18 66.7082L102.527 70.8541L99 68.2918L95.4733 70.8541L96.8204 66.7082L93.2937 64.1459H97.6529L99 60Z" fill="white"/>
<path d="M99 78L100.347 82.1459H104.706L101.18 84.7082L102.527 88.8541L99 86.2918L95.4733 88.8541L96.8204 84.7082L93.2937 82.1459H97.6529L99 78Z" fill="white"/>
<path d="M121 3L122.347 7.1459H126.706L123.18 9.7082L124.527 13.8541L121 11.2918L117.473 13.8541L118.82 9.7082L115.294 7.1459H119.653L121 3Z" fill="white"/>
<path d="M121 22L122.347 26.1459H126.706L123.18 28.7082L124.527 32.8541L121 30.2918L117.473 32.8541L118.82 28.7082L115.294 26.1459H119.653L121 22Z" fill="white"/>
<path d="M121 41L122.347 45.1459H126.706L123.18 47.7082L124.527 51.8541L121 49.2918L117.473 51.8541L118.82 47.7082L115.294 45.1459H119.653L121 41Z" fill="white"/>
<path d="M121 60L122.347 64.1459H126.706L123.18 66.7082L124.527 70.8541L121 68.2918L117.473 70.8541L118.82 66.7082L115.294 64.1459H119.653L121 60Z" fill="white"/>
<path d="M121 78L122.347 82.1459H126.706L123.18 84.7082L124.527 88.8541L121 86.2918L117.473 88.8541L118.82 84.7082L115.294 82.1459H119.653L121 78Z" fill="white"/>
</svg>
