<svg width="23" height="23" viewBox="0 0 23 23" fill="none" xmlns="http://www.w3.org/2000/svg">
<path d="M11.505 0C17.8443 0 23 5.13563 23 11.4549C23 14.5049 21.7884 17.4299 19.6317 19.5866C17.4751 21.7433 14.55 22.9549 11.5 22.9549C8.45001 22.9549 5.52494 21.7433 3.36827 19.5866C1.2116 17.4299 0 14.5049 0 11.4549C0 5.13563 5.15569 0 11.505 0ZM11.6856 12.3576L8.5761 21.3349C10.6607 21.9462 12.8843 21.8901 14.9355 21.1744C14.9075 21.1266 14.884 21.0762 14.8652 21.024L11.6856 12.3576ZM2.05626 7.2621C0.963713 9.70814 0.868037 12.4838 1.78956 14.9993C2.71109 17.5147 4.57717 19.5717 6.99128 20.7331L2.05626 7.2621ZM20.5726 6.50981C20.6228 6.84082 20.6428 7.19189 20.6428 7.57305C20.6428 8.61622 20.4422 9.78979 19.8604 11.2643L16.7008 20.3519C19.0246 19.006 20.7302 16.805 21.4536 14.2188C22.177 11.6326 21.8608 8.8661 20.5726 6.50981ZM11.505 1.17357C7.89403 1.17357 4.71435 3.01919 2.8587 5.81771C4.00049 5.85573 5.14353 5.81215 6.27911 5.68731C6.84082 5.65722 6.901 6.46969 6.34932 6.5399C6.34932 6.5399 5.78761 6.60009 5.16572 6.64021L8.92717 17.7841L11.1941 11.0235L9.58919 6.62015C9.02748 6.59006 8.49586 6.51984 8.49586 6.51984C7.94418 6.48975 8.00436 5.64719 8.56607 5.67728C8.56607 5.67728 10.2713 5.80768 11.2843 5.80768C12.3676 5.81771 14.0427 5.68731 14.0427 5.68731C14.5944 5.65722 14.6646 6.46969 14.113 6.5399C14.113 6.5399 13.5512 6.60009 12.9294 6.64021L16.6607 17.7139L17.6939 14.2734C18.1568 13.2203 18.4253 12.0921 18.4863 10.9433C18.4715 9.93623 18.1763 8.95321 17.6337 8.10467C17.1021 7.25207 16.6106 6.5399 16.6106 5.69734C16.6106 4.74444 17.3328 3.86175 18.3559 3.86175H18.4863C16.5793 2.11973 14.0879 1.15684 11.505 1.16354V1.17357Z" fill="#3858E9"/>
</svg>
